<?xml version="1.0" standalone="no"?>
<!DOCTYPE svg PUBLIC "-//W3C//DTD SVG 20010904//EN"
 "http://www.w3.org/TR/2001/REC-SVG-20010904/DTD/svg10.dtd">
<svg version="1.0" xmlns="http://www.w3.org/2000/svg"
 width="100%" height="100%" viewBox="0 0 699.000000 190.000000"
 preserveAspectRatio="xMidYMid meet">

<g transform="translate(0.000000,190.000000) scale(0.100000,-0.100000)"
fill="#ff4e00" stroke="none">
<path d="M132 1870 c-27 -29 -98 -162 -118 -222 -13 -41 -14 -60 -5 -107 5
-31 13 -78 17 -106 3 -27 13 -65 21 -84 15 -31 19 -33 52 -26 20 4 49 9 64 12
17 3 34 0 45 -10 14 -12 23 -12 52 -2 l35 12 6 84 c10 133 44 232 115 332 19
26 34 49 34 52 0 18 -214 85 -272 85 -15 0 -36 -9 -46 -20z"/>
<path d="M473 1747 c-63 -69 -123 -233 -123 -333 l0 -64 83 0 c111 0 196 -22
294 -75 121 -66 144 -61 122 27 -12 50 -11 52 15 73 45 36 32 75 -16 47 -29
-17 -30 -17 -53 12 -15 19 -29 27 -39 23 -22 -8 -20 -29 4 -60 20 -25 27 -67
12 -67 -4 0 -45 23 -92 50 -47 28 -90 50 -96 50 -15 0 -64 39 -64 51 0 5 23
25 50 45 69 50 68 75 -6 166 -31 37 -60 70 -64 73 -4 2 -16 -6 -27 -18z"/>
<path d="M5960 1373 c-47 -14 -92 -28 -100 -33 -9 -4 -30 -11 -48 -15 -33 -7
-41 -26 -23 -54 10 -15 41 -9 216 43 76 23 80 25 80 52 0 38 -17 39 -125 7z"/>
<path d="M6588 1310 c-75 -13 -149 -53 -206 -111 -67 -69 -99 -125 -123 -218
-53 -206 16 -382 179 -458 47 -22 63 -24 145 -21 76 3 102 9 151 33 81 40 158
120 204 214 36 75 37 78 37 196 0 108 -3 125 -27 175 -69 146 -203 217 -360
190z m143 -257 c49 -79 19 -246 -57 -316 -38 -36 -87 -44 -131 -23 -92 44 -98
249 -10 351 26 30 43 40 78 45 56 8 89 -8 120 -57z"/>
<path d="M2070 1295 c-72 -21 -134 -57 -193 -114 -69 -66 -104 -132 -121 -230
-26 -152 10 -280 103 -363 62 -56 131 -80 229 -81 310 -1 361 2 382 23 11 11
20 29 20 40 0 11 12 49 26 85 l26 65 83 0 c96 0 91 5 101 -105 9 -105 8 -104
219 -104 94 0 180 3 193 6 25 6 23 1 47 163 23 162 26 180 35 180 4 0 10 -19
13 -42 3 -24 15 -86 26 -138 11 -52 20 -105 21 -117 0 -32 37 -53 95 -53 86 0
89 3 128 103 57 146 84 208 92 210 4 1 6 -64 6 -145 -2 -134 0 -148 17 -157
19 -10 340 -14 379 -5 15 4 26 20 37 52 8 26 24 70 34 97 l18 50 81 3 c97 3
101 0 110 -109 5 -55 10 -73 27 -84 27 -20 175 -21 201 -1 15 11 22 11 44 0
19 -10 79 -14 237 -14 191 0 214 2 234 18 23 18 24 18 42 0 17 -17 40 -18 338
-17 360 1 347 -2 369 77 7 23 21 63 31 87 l19 45 85 0 c96 0 90 7 102 -113 9
-87 21 -97 125 -97 137 0 138 1 104 190 -3 19 -19 87 -35 150 -55 217 -79 325
-86 377 -10 77 -17 80 -130 49 -129 -37 -163 -53 -173 -79 -12 -30 -70 -155
-148 -317 -36 -74 -69 -146 -74 -159 -7 -18 -13 -21 -21 -13 -8 8 -52 9 -143
5 -74 -3 -134 -2 -137 3 -3 5 -3 33 0 63 l5 54 98 -7 c91 -6 101 -4 119 14 12
12 20 33 20 54 0 18 3 47 6 63 10 51 -12 62 -124 61 -83 0 -97 2 -96 16 0 9 1
30 2 47 l2 32 129 -8 c151 -8 144 -12 156 98 5 48 4 71 -5 82 -10 12 -50 15
-235 15 -199 0 -223 -2 -237 -17 -11 -13 -17 -54 -22 -158 -3 -77 -15 -201
-26 -275 -11 -74 -20 -142 -20 -150 0 -12 -3 -12 -16 2 -13 13 -36 15 -146 10
l-131 -5 7 99 c7 99 41 386 52 435 9 46 -16 59 -115 59 -59 0 -92 -4 -99 -12
-5 -7 -12 -58 -16 -113 -3 -55 -13 -158 -22 -230 -29 -244 -35 -290 -35 -312
-2 -46 -17 -21 -28 45 -7 37 -19 90 -27 117 -7 28 -18 74 -24 103 -5 29 -14
60 -19 70 -5 9 -9 19 -8 22 2 10 -55 276 -63 290 -10 20 -232 27 -246 8 -6 -7
-21 -40 -34 -73 -21 -54 -104 -233 -208 -447 -20 -43 -40 -78 -43 -78 -13 0
-17 191 -8 384 6 141 5 204 -3 213 -7 9 -43 13 -129 13 -134 0 -120 8 -149
-85 -28 -90 -114 -295 -120 -288 -9 10 -46 204 -55 288 -4 33 -12 66 -17 73
-7 8 -45 12 -123 12 -129 0 -138 -5 -150 -80 -4 -25 -9 -56 -12 -70 -6 -37
-51 -243 -73 -336 -11 -45 -22 -92 -24 -105 -3 -13 -5 -26 -6 -29 -7 -21 -130
509 -130 561 0 49 -25 59 -147 59 -121 0 -122 0 -143 -65 -7 -22 -36 -87 -63
-145 -28 -58 -70 -148 -94 -200 -69 -148 -79 -165 -105 -167 -13 -1 -66 -5
-119 -9 l-97 -7 -43 41 c-43 40 -44 41 -47 117 -5 95 14 150 68 199 47 42 104
53 184 35 69 -15 76 -10 100 77 22 83 21 99 -11 114 -44 20 -189 22 -253 5z
m603 -337 c3 -23 3 -46 1 -50 -6 -10 -51 -10 -57 0 -6 10 30 92 41 92 5 0 12
-19 15 -42z m1549 1 c10 -47 4 -59 -33 -59 -21 0 -29 4 -25 13 2 6 10 29 17
50 15 45 31 43 41 -4z m1723 19 c13 -58 11 -73 -14 -76 -36 -6 -43 10 -24 56
18 47 30 53 38 20z"/>
<path d="M285 1281 c-33 -9 -66 -20 -72 -24 -14 -9 -38 -89 -48 -159 -3 -27
-10 -48 -15 -48 -17 0 -40 32 -40 54 0 13 -6 29 -14 35 -19 16 -49 3 -40 -18
18 -45 17 -51 -21 -66 -47 -20 -40 -40 13 -40 37 0 46 -5 81 -45 l39 -45 33
24 c27 20 34 22 41 10 141 -237 150 -259 109 -259 -9 0 -26 -6 -36 -14 -18
-13 -18 -19 -8 -67 10 -48 9 -56 -8 -75 -28 -30 -25 -58 4 -49 60 18 66 18 78
-9 14 -29 22 -32 38 -13 8 10 6 23 -9 52 -32 63 -28 69 34 61 l55 -6 6 57 c19
183 103 311 254 392 33 17 63 36 66 41 8 13 -32 105 -54 124 -33 30 -142 76
-212 91 -91 19 -199 18 -274 -4z"/>
<path d="M775 981 c-128 -75 -225 -231 -225 -363 0 -52 8 -65 95 -152 l75 -75
20 26 c11 14 20 29 20 32 0 4 27 35 60 69 56 59 60 66 60 111 0 79 47 211 76
211 16 0 44 -34 44 -53 0 -21 29 -49 42 -41 6 4 8 22 4 44 -6 36 -4 39 25 49
43 15 36 47 -9 43 -28 -2 -36 4 -64 43 -34 48 -52 54 -84 30 -30 -22 -41 -18
-54 20 -6 19 -17 35 -23 35 -7 0 -34 -13 -62 -29z"/>
<path d="M1087 480 c-55 -35 -91 -95 -67 -110 25 -16 37 -12 85 30 25 22 52
40 60 40 27 0 71 -22 101 -51 34 -33 43 -29 63 24 14 37 5 54 -40 77 -61 31
-144 27 -202 -10z"/>
<path d="M842 472 c-17 -18 -44 -54 -60 -81 l-30 -47 29 -57 c45 -91 97 -164
151 -211 71 -62 173 -91 233 -66 17 7 13 11 -28 29 -108 47 -196 179 -231 348
-8 37 -19 79 -24 93 l-9 25 -31 -33z"/>
<path d="M1339 328 c-19 -29 -46 -75 -59 -102 -28 -54 -76 -91 -133 -101 -47
-9 -36 -27 30 -49 76 -26 106 -21 143 21 49 55 71 114 72 188 0 97 -11 107
-53 43z"/>
<path d="M1165 328 c-2 -7 -5 -24 -7 -37 -4 -34 -43 -46 -67 -22 -10 10 -20
23 -22 29 -2 5 -19 13 -38 17 l-34 7 6 -37 c9 -58 51 -95 105 -95 37 0 50 6
78 34 36 36 45 81 22 104 -16 16 -38 15 -43 0z"/>
</g>
</svg>
