<?xml version="1.0" standalone="no"?>
<!DOCTYPE svg PUBLIC "-//W3C//DTD SVG 20010904//EN"
 "http://www.w3.org/TR/2001/REC-SVG-20010904/DTD/svg10.dtd">
<svg version="1.0" xmlns="http://www.w3.org/2000/svg"
 width="100%" height="100%" viewBox="0 0 512.000000 512.000000"
 preserveAspectRatio="xMidYMid meet">

<g transform="translate(0.000000,512.000000) scale(0.100000,-0.100000)"
fill="#000000" stroke="none">
<path d="M1135 4898 c-11 -7 -25 -16 -30 -22 -15 -15 -70 -97 -78 -116 -4 -8
-20 -37 -37 -65 -27 -46 -131 -252 -151 -300 -57 -140 -63 -266 -19 -445 5
-19 14 -82 20 -140 32 -286 81 -339 258 -275 103 37 144 33 203 -21 l25 -24
90 28 89 28 7 140 c7 143 22 269 39 339 44 170 63 225 126 353 50 102 125 215
196 297 32 36 27 43 -56 83 -74 36 -123 52 -248 85 -240 64 -387 82 -434 55z"/>
<path d="M1953 4558 c-72 -77 -163 -242 -213 -388 -7 -19 -16 -44 -20 -55 -5
-11 -11 -31 -15 -45 -3 -14 -11 -41 -16 -60 -26 -98 -41 -206 -41 -308 -1 -62
2 -116 6 -120 4 -4 82 -5 172 -4 172 3 260 -5 404 -39 153 -36 322 -108 445
-189 39 -26 86 -53 106 -60 43 -15 107 -6 116 17 7 18 -13 181 -29 231 -13 44
-4 74 29 94 55 33 73 57 73 99 0 51 -19 59 -68 27 -20 -13 -50 -29 -65 -36
-27 -11 -31 -10 -63 22 -19 19 -34 40 -34 48 0 8 -11 25 -24 37 -23 22 -25 22
-55 7 -48 -25 -36 -89 31 -165 43 -50 50 -94 19 -132 l-18 -23 -54 27 c-30 14
-97 54 -149 87 -88 57 -215 123 -318 166 -61 25 -92 59 -92 101 0 43 19 63
123 133 111 75 139 135 102 223 -15 37 -283 357 -299 357 -2 0 -25 -24 -53
-52z"/>
<path d="M1700 3440 c-96 -8 -186 -24 -228 -41 -13 -5 -31 -9 -40 -9 -36 -1
-145 -65 -161 -95 -22 -40 -41 -97 -41 -120 0 -10 -4 -32 -9 -49 -6 -17 -17
-79 -26 -138 -19 -135 -28 -158 -57 -158 -46 1 -82 49 -93 123 -4 33 -16 59
-37 82 -34 40 -47 42 -79 16 l-23 -19 19 -42 c40 -88 9 -160 -69 -160 -58 0
-90 -66 -45 -91 24 -13 110 -5 138 13 25 16 37 6 141 -115 106 -124 103 -123
189 -45 34 31 61 48 74 46 14 -2 37 -37 81 -123 34 -66 102 -185 150 -265 49
-80 97 -161 108 -180 11 -19 24 -39 29 -45 5 -5 9 -19 9 -32 0 -18 -8 -24 -42
-33 -138 -36 -178 -56 -178 -87 0 -20 12 -69 42 -173 24 -85 23 -91 -31 -145
-52 -50 -61 -76 -37 -108 18 -24 39 -21 75 9 39 33 93 42 125 21 13 -9 34 -39
47 -67 25 -55 26 -55 64 -38 51 23 40 100 -23 170 -30 33 -36 47 -35 79 3 65
18 82 66 76 23 -3 58 -10 77 -15 88 -27 121 -34 126 -29 4 3 10 55 15 114 28
321 114 541 297 751 90 104 191 180 347 262 94 49 148 80 159 90 24 23 -75
249 -136 309 -35 36 -203 128 -333 182 -134 57 -456 95 -655 79z"/>
<path d="M2770 2688 c-279 -151 -439 -328 -551 -608 -23 -58 -27 -74 -54 -180
-20 -79 -22 -234 -4 -275 28 -64 63 -105 145 -170 51 -40 116 -106 161 -161
41 -52 83 -94 92 -94 9 0 49 50 96 121 76 114 128 172 238 265 l49 41 13 144
c16 170 26 223 60 324 42 127 103 225 139 225 7 0 31 -16 54 -36 35 -30 43
-44 54 -95 15 -74 62 -128 97 -110 29 16 35 51 17 96 -32 77 -17 112 59 134
22 7 46 14 53 17 10 3 9 10 -4 30 -14 20 -15 27 -5 33 19 12 -23 21 -96 21
l-62 0 -73 108 c-91 133 -97 135 -207 63 -42 -28 -82 -51 -88 -51 -12 0 -24
29 -53 128 -16 54 -25 72 -38 71 -9 0 -51 -19 -92 -41z"/>
<path d="M3719 1486 c-3 -3 -34 -10 -69 -15 -142 -23 -291 -135 -340 -255 -31
-77 -23 -90 57 -94 59 -3 62 -2 94 35 108 120 146 143 240 143 102 0 178 -47
270 -169 l26 -35 33 49 c36 52 70 133 70 165 0 29 -68 93 -131 123 -65 32
-235 68 -250 53z"/>
<path d="M2882 1392 c-62 -63 -152 -179 -152 -197 0 -3 -18 -35 -39 -70 l-40
-65 58 -112 c95 -184 195 -341 223 -351 7 -2 24 4 37 14 13 11 33 19 45 19 12
0 26 4 32 9 12 12 114 30 131 24 18 -7 16 11 -6 61 -61 134 -119 309 -151 461
-5 22 -13 58 -18 80 -6 22 -15 63 -21 90 -6 28 -14 63 -19 80 l-8 30 -72 -73z"/>
<path d="M4158 1095 c-21 -34 -54 -84 -73 -110 -20 -26 -63 -102 -95 -169 -66
-137 -121 -207 -197 -248 -58 -32 -155 -58 -214 -58 l-42 0 23 -25 c44 -46
217 -115 290 -115 21 0 29 10 49 56 13 31 30 58 37 61 7 3 18 19 24 37 17 52
63 87 202 153 33 16 38 25 57 90 26 88 28 215 5 305 -9 35 -19 68 -23 75 -3 6
-22 -15 -43 -52z"/>
<path d="M3634 258 c0 -14 8 -18 33 -18 18 0 33 3 33 8 0 4 -15 12 -33 17 -29
9 -33 8 -33 -7z"/>
</g>
</svg>
